<svg width="441" height="248" viewBox="0 0 441 248" fill="none" xmlns="http://www.w3.org/2000/svg">
<path d="M85 64C59 89.2 17.5 74.5 0 64L9.53674e-06 33.5L0 0H64H133.5C128.167 10.8333 111 38.8 85 64Z" fill="url(#paint0_linear_17_59)"/>
<path d="M235.353 187.027C213.353 202.627 210.853 233.861 212.353 247.527H440.853V111.027C434.353 110.527 424.353 117.027 418.853 120.527C413.353 124.027 406.853 135.527 402.353 140.027C398.753 143.627 387.52 141.527 382.353 140.027C377.52 138.527 363.953 136.427 348.353 140.027C328.853 144.527 321.353 157.527 311.353 166.527C303.353 173.727 292.353 174.527 287.853 174.027C279.52 171.861 257.353 171.427 235.353 187.027Z" fill="url(#paint1_linear_17_59)"/>
<circle cx="287.5" cy="152.5" r="13.5" fill="url(#paint2_linear_17_59)"/>
<circle cx="362.5" cy="115.5" r="8.5" fill="url(#paint3_linear_17_59)"/>
<defs>
<linearGradient id="paint0_linear_17_59" x1="61.75" y1="-36" x2="61.75" y2="77.9142" gradientUnits="userSpaceOnUse">
<stop stop-color="#00D3EB"/>
<stop offset="1" stop-color="#00B9FF"/>
</linearGradient>
<linearGradient id="paint1_linear_17_59" x1="212" y1="179.264" x2="440.853" y2="179.264" gradientUnits="userSpaceOnUse">
<stop stop-color="#0069FF"/>
<stop offset="1" stop-color="#D694E4"/>
</linearGradient>
<linearGradient id="paint2_linear_17_59" x1="287.5" y1="139" x2="287.5" y2="166" gradientUnits="userSpaceOnUse">
<stop stop-color="#4276F7"/>
<stop offset="1" stop-color="#547AF4"/>
</linearGradient>
<linearGradient id="paint3_linear_17_59" x1="354" y1="115.5" x2="371" y2="115.5" gradientUnits="userSpaceOnUse">
<stop stop-color="#8884EE"/>
<stop offset="1" stop-color="#9887EC"/>
</linearGradient>
</defs>
</svg>
